<mxfile host="app.diagrams.net" modified="2021-10-25T02:11:56.355Z" agent="5.0 (Windows NT 10.0; Win64; x64) AppleWebKit/537.36 (KHTML, like Gecko) Chrome/94.0.4606.81 Safari/537.36" etag="_T7SkeHKwu9Z_091Dcia" version="15.5.9" type="github">
  <diagram id="xTUGB7p3_omPBzjIi3sy" name="Page-1">
    <mxGraphModel dx="1314" dy="529" grid="1" gridSize="10" guides="1" tooltips="1" connect="1" arrows="1" fold="1" page="1" pageScale="1" pageWidth="850" pageHeight="1100" math="0" shadow="0">
      <root>
        <mxCell id="0" />
        <mxCell id="1" parent="0" />
        <mxCell id="VnJcrbIUjHWHnTCe0xU6-1" value="Empleado" style="swimlane;fontStyle=0;childLayout=stackLayout;horizontal=1;startSize=30;horizontalStack=0;resizeParent=1;resizeParentMax=0;resizeLast=0;collapsible=1;marginBottom=0;" vertex="1" parent="1">
          <mxGeometry x="320" y="20" width="320" height="450" as="geometry" />
        </mxCell>
        <mxCell id="VnJcrbIUjHWHnTCe0xU6-2" value="-String nombre" style="text;strokeColor=none;fillColor=none;align=left;verticalAlign=middle;spacingLeft=4;spacingRight=4;overflow=hidden;points=[[0,0.5],[1,0.5]];portConstraint=eastwest;rotatable=0;" vertex="1" parent="VnJcrbIUjHWHnTCe0xU6-1">
          <mxGeometry y="30" width="320" height="30" as="geometry" />
        </mxCell>
        <mxCell id="VnJcrbIUjHWHnTCe0xU6-3" value="-double salario" style="text;strokeColor=none;fillColor=none;align=left;verticalAlign=middle;spacingLeft=4;spacingRight=4;overflow=hidden;points=[[0,0.5],[1,0.5]];portConstraint=eastwest;rotatable=0;" vertex="1" parent="VnJcrbIUjHWHnTCe0xU6-1">
          <mxGeometry y="60" width="320" height="30" as="geometry" />
        </mxCell>
        <mxCell id="VnJcrbIUjHWHnTCe0xU6-4" value="-double numHorasTrabajadas" style="text;strokeColor=none;fillColor=none;align=left;verticalAlign=middle;spacingLeft=4;spacingRight=4;overflow=hidden;points=[[0,0.5],[1,0.5]];portConstraint=eastwest;rotatable=0;" vertex="1" parent="VnJcrbIUjHWHnTCe0xU6-1">
          <mxGeometry y="90" width="320" height="30" as="geometry" />
        </mxCell>
        <mxCell id="VnJcrbIUjHWHnTCe0xU6-13" value="&lt;span style=&quot;text-align: left&quot;&gt;+ Empleado(String nombre, double numHorasTrabajadas)&lt;/span&gt;" style="text;html=1;strokeColor=none;fillColor=none;align=center;verticalAlign=middle;whiteSpace=wrap;rounded=0;" vertex="1" parent="VnJcrbIUjHWHnTCe0xU6-1">
          <mxGeometry y="120" width="320" height="30" as="geometry" />
        </mxCell>
        <mxCell id="VnJcrbIUjHWHnTCe0xU6-14" value="" style="endArrow=none;html=1;rounded=0;exitX=0;exitY=0;exitDx=0;exitDy=0;entryX=1;entryY=0;entryDx=0;entryDy=0;" edge="1" parent="VnJcrbIUjHWHnTCe0xU6-1" source="VnJcrbIUjHWHnTCe0xU6-13" target="VnJcrbIUjHWHnTCe0xU6-13">
          <mxGeometry width="50" height="50" relative="1" as="geometry">
            <mxPoint x="80" y="210" as="sourcePoint" />
            <mxPoint x="130" y="160" as="targetPoint" />
          </mxGeometry>
        </mxCell>
        <mxCell id="VnJcrbIUjHWHnTCe0xU6-15" value="+void setNombre(String nombre)" style="text;html=1;strokeColor=none;fillColor=none;align=center;verticalAlign=middle;whiteSpace=wrap;rounded=0;" vertex="1" parent="VnJcrbIUjHWHnTCe0xU6-1">
          <mxGeometry y="150" width="320" height="30" as="geometry" />
        </mxCell>
        <mxCell id="VnJcrbIUjHWHnTCe0xU6-16" value="+String getNombre()" style="text;html=1;strokeColor=none;fillColor=none;align=center;verticalAlign=middle;whiteSpace=wrap;rounded=0;" vertex="1" parent="VnJcrbIUjHWHnTCe0xU6-1">
          <mxGeometry y="180" width="320" height="30" as="geometry" />
        </mxCell>
        <mxCell id="VnJcrbIUjHWHnTCe0xU6-17" value="+void setSalario(double salario)" style="text;html=1;strokeColor=none;fillColor=none;align=center;verticalAlign=middle;whiteSpace=wrap;rounded=0;" vertex="1" parent="VnJcrbIUjHWHnTCe0xU6-1">
          <mxGeometry y="210" width="320" height="30" as="geometry" />
        </mxCell>
        <mxCell id="VnJcrbIUjHWHnTCe0xU6-18" value="+ double getSalario()" style="text;strokeColor=none;fillColor=none;align=left;verticalAlign=middle;spacingLeft=4;spacingRight=4;overflow=hidden;points=[[0,0.5],[1,0.5]];portConstraint=eastwest;rotatable=0;" vertex="1" parent="VnJcrbIUjHWHnTCe0xU6-1">
          <mxGeometry y="240" width="320" height="30" as="geometry" />
        </mxCell>
        <mxCell id="VnJcrbIUjHWHnTCe0xU6-19" value="&lt;p class=&quot;MsoNormal&quot; style=&quot;margin-bottom: 0cm ; line-height: normal&quot;&gt;&lt;span lang=&quot;EN-US&quot;&gt;&lt;font face=&quot;Tahoma&quot; style=&quot;font-size: 12px&quot;&gt;+void setSalario(double salario)&lt;/font&gt;&lt;/span&gt;&lt;/p&gt;" style="text;html=1;strokeColor=none;fillColor=none;align=center;verticalAlign=middle;whiteSpace=wrap;rounded=0;" vertex="1" parent="VnJcrbIUjHWHnTCe0xU6-1">
          <mxGeometry y="270" width="320" height="30" as="geometry" />
        </mxCell>
        <mxCell id="VnJcrbIUjHWHnTCe0xU6-20" value="&lt;font style=&quot;font-size: 12px&quot;&gt;+void setNumHorasTrabajadas(double&lt;br&gt;numHorasTrabajadas)&lt;/font&gt;&lt;p class=&quot;MsoNormal&quot; style=&quot;margin-bottom: 0cm ; line-height: normal&quot;&gt;&lt;span style=&quot;font-size: 12.0pt ; font-family: &amp;#34;segoe ui&amp;#34; , sans-serif&quot;&gt;&lt;/span&gt;&lt;/p&gt;" style="text;html=1;strokeColor=none;fillColor=none;align=center;verticalAlign=middle;whiteSpace=wrap;rounded=0;fontFamily=Tahoma;fontSize=12;" vertex="1" parent="VnJcrbIUjHWHnTCe0xU6-1">
          <mxGeometry y="300" width="320" height="30" as="geometry" />
        </mxCell>
        <mxCell id="VnJcrbIUjHWHnTCe0xU6-22" value="+&lt;span&gt;double getNumHorasTrabajadas()&lt;/span&gt;&lt;p class=&quot;MsoNormal&quot;&gt;&lt;/p&gt;" style="text;html=1;strokeColor=none;fillColor=none;align=center;verticalAlign=middle;whiteSpace=wrap;rounded=0;fontFamily=Tahoma;fontSize=12;" vertex="1" parent="VnJcrbIUjHWHnTCe0xU6-1">
          <mxGeometry y="330" width="320" height="30" as="geometry" />
        </mxCell>
        <mxCell id="VnJcrbIUjHWHnTCe0xU6-23" value="+&lt;span&gt;String toString()&lt;/span&gt;&lt;p class=&quot;MsoNormal&quot;&gt;&lt;/p&gt;" style="text;html=1;strokeColor=none;fillColor=none;align=center;verticalAlign=middle;whiteSpace=wrap;rounded=0;fontFamily=Tahoma;fontSize=12;" vertex="1" parent="VnJcrbIUjHWHnTCe0xU6-1">
          <mxGeometry y="360" width="320" height="30" as="geometry" />
        </mxCell>
        <mxCell id="VnJcrbIUjHWHnTCe0xU6-24" value="+&lt;span&gt;double calcularSalario(int numHorasTrabajadas, double&lt;br/&gt;tarifa)&lt;/span&gt;&lt;p class=&quot;MsoNormal&quot;&gt;&lt;/p&gt;" style="text;html=1;strokeColor=none;fillColor=none;align=center;verticalAlign=middle;whiteSpace=wrap;rounded=0;fontFamily=Tahoma;fontSize=12;" vertex="1" parent="VnJcrbIUjHWHnTCe0xU6-1">
          <mxGeometry y="390" width="320" height="30" as="geometry" />
        </mxCell>
        <mxCell id="VnJcrbIUjHWHnTCe0xU6-25" value="Text" style="text;html=1;strokeColor=none;fillColor=none;align=center;verticalAlign=middle;whiteSpace=wrap;rounded=0;fontFamily=Tahoma;fontSize=12;" vertex="1" parent="VnJcrbIUjHWHnTCe0xU6-1">
          <mxGeometry y="420" width="320" height="30" as="geometry" />
        </mxCell>
        <mxCell id="VnJcrbIUjHWHnTCe0xU6-5" value="Jornalero" style="swimlane;fontStyle=0;childLayout=stackLayout;horizontal=1;startSize=30;horizontalStack=0;resizeParent=1;resizeParentMax=0;resizeLast=0;collapsible=1;marginBottom=0;" vertex="1" parent="1">
          <mxGeometry x="530" y="550" width="410" height="270" as="geometry" />
        </mxCell>
        <mxCell id="VnJcrbIUjHWHnTCe0xU6-6" value="-int horasExtra" style="text;strokeColor=none;fillColor=none;align=left;verticalAlign=middle;spacingLeft=4;spacingRight=4;overflow=hidden;points=[[0,0.5],[1,0.5]];portConstraint=eastwest;rotatable=0;" vertex="1" parent="VnJcrbIUjHWHnTCe0xU6-5">
          <mxGeometry y="30" width="410" height="30" as="geometry" />
        </mxCell>
        <mxCell id="VnJcrbIUjHWHnTCe0xU6-7" value="+int setHorasExtra(horasExtra)" style="text;strokeColor=none;fillColor=none;align=left;verticalAlign=middle;spacingLeft=4;spacingRight=4;overflow=hidden;points=[[0,0.5],[1,0.5]];portConstraint=eastwest;rotatable=0;" vertex="1" parent="VnJcrbIUjHWHnTCe0xU6-5">
          <mxGeometry y="60" width="410" height="30" as="geometry" />
        </mxCell>
        <mxCell id="VnJcrbIUjHWHnTCe0xU6-8" value="+int getHorasExtra()" style="text;strokeColor=none;fillColor=none;align=left;verticalAlign=middle;spacingLeft=4;spacingRight=4;overflow=hidden;points=[[0,0.5],[1,0.5]];portConstraint=eastwest;rotatable=0;" vertex="1" parent="VnJcrbIUjHWHnTCe0xU6-5">
          <mxGeometry y="90" width="410" height="30" as="geometry" />
        </mxCell>
        <mxCell id="VnJcrbIUjHWHnTCe0xU6-31" value="" style="endArrow=none;html=1;rounded=0;fontFamily=Tahoma;fontSize=12;entryX=0.988;entryY=-0.084;entryDx=0;entryDy=0;entryPerimeter=0;" edge="1" parent="VnJcrbIUjHWHnTCe0xU6-5" target="VnJcrbIUjHWHnTCe0xU6-7">
          <mxGeometry width="50" height="50" relative="1" as="geometry">
            <mxPoint y="57" as="sourcePoint" />
            <mxPoint x="-330" y="-20" as="targetPoint" />
          </mxGeometry>
        </mxCell>
        <mxCell id="VnJcrbIUjHWHnTCe0xU6-32" value="&lt;font style=&quot;font-size: 12px&quot;&gt;+&lt;span style=&quot;line-height: 107% ; font-family: &amp;#34;calibri&amp;#34; , sans-serif&quot;&gt;Jornalero(String&lt;br&gt;nombre, double numHorasTrabajadas, int horasExtra)&lt;/span&gt;&lt;/font&gt;" style="text;html=1;strokeColor=none;fillColor=none;align=center;verticalAlign=middle;whiteSpace=wrap;rounded=0;fontFamily=Tahoma;fontSize=12;" vertex="1" parent="VnJcrbIUjHWHnTCe0xU6-5">
          <mxGeometry y="120" width="410" height="30" as="geometry" />
        </mxCell>
        <mxCell id="VnJcrbIUjHWHnTCe0xU6-33" value="+&lt;span&gt;void&lt;br/&gt;setHorasExtra(int horasExtra)&lt;/span&gt;&lt;p class=&quot;MsoNormal&quot; style=&quot;margin-bottom: 0cm ; line-height: normal&quot;&gt;&lt;/p&gt;" style="text;html=1;strokeColor=none;fillColor=none;align=center;verticalAlign=middle;whiteSpace=wrap;rounded=0;fontFamily=Tahoma;fontSize=12;" vertex="1" parent="VnJcrbIUjHWHnTCe0xU6-5">
          <mxGeometry y="150" width="410" height="30" as="geometry" />
        </mxCell>
        <mxCell id="VnJcrbIUjHWHnTCe0xU6-34" value="+ int getHorasExtra()" style="text;strokeColor=none;fillColor=none;align=left;verticalAlign=middle;spacingLeft=4;spacingRight=4;overflow=hidden;points=[[0,0.5],[1,0.5]];portConstraint=eastwest;rotatable=0;fontFamily=Tahoma;fontSize=12;" vertex="1" parent="VnJcrbIUjHWHnTCe0xU6-5">
          <mxGeometry y="180" width="410" height="30" as="geometry" />
        </mxCell>
        <mxCell id="VnJcrbIUjHWHnTCe0xU6-35" value="&lt;p class=&quot;MsoNormal&quot; style=&quot;margin-bottom: 0cm ; line-height: normal&quot;&gt;+String toString()&lt;/p&gt;" style="text;html=1;strokeColor=none;fillColor=none;align=center;verticalAlign=middle;whiteSpace=wrap;rounded=0;fontFamily=Tahoma;fontSize=12;" vertex="1" parent="VnJcrbIUjHWHnTCe0xU6-5">
          <mxGeometry y="210" width="410" height="30" as="geometry" />
        </mxCell>
        <mxCell id="VnJcrbIUjHWHnTCe0xU6-36" value="+&lt;span&gt;double&lt;br/&gt;calcularSalario(int numHorasTrabajadas, double tarifa, int horasExtra)&lt;/span&gt;&lt;p class=&quot;MsoNormal&quot; style=&quot;margin-bottom: 0cm ; line-height: normal&quot;&gt;&lt;/p&gt;" style="text;html=1;strokeColor=none;fillColor=none;align=center;verticalAlign=middle;whiteSpace=wrap;rounded=0;fontFamily=Tahoma;fontSize=12;" vertex="1" parent="VnJcrbIUjHWHnTCe0xU6-5">
          <mxGeometry y="240" width="410" height="30" as="geometry" />
        </mxCell>
        <mxCell id="VnJcrbIUjHWHnTCe0xU6-9" value="Administrador" style="swimlane;fontStyle=0;childLayout=stackLayout;horizontal=1;startSize=30;horizontalStack=0;resizeParent=1;resizeParentMax=0;resizeLast=0;collapsible=1;marginBottom=0;" vertex="1" parent="1">
          <mxGeometry x="120" y="550" width="330" height="120" as="geometry" />
        </mxCell>
        <mxCell id="VnJcrbIUjHWHnTCe0xU6-12" value="+Administrador(String&#xa;nombre, double numHorasTrabajadas)&#xa;" style="text;strokeColor=none;fillColor=none;align=left;verticalAlign=middle;spacingLeft=4;spacingRight=4;overflow=hidden;points=[[0,0.5],[1,0.5]];portConstraint=eastwest;rotatable=0;" vertex="1" parent="VnJcrbIUjHWHnTCe0xU6-9">
          <mxGeometry y="30" width="330" height="30" as="geometry" />
        </mxCell>
        <mxCell id="VnJcrbIUjHWHnTCe0xU6-28" value="+&lt;span&gt;double&lt;br&gt;+calcularSalario(int numHorasTrabajadas, double tarifa)&lt;/span&gt;&lt;p class=&quot;MsoNormal&quot; style=&quot;margin-bottom: 0cm ; line-height: normal&quot;&gt;&lt;/p&gt;" style="text;html=1;strokeColor=none;fillColor=none;align=center;verticalAlign=middle;whiteSpace=wrap;rounded=0;fontFamily=Tahoma;fontSize=12;" vertex="1" parent="VnJcrbIUjHWHnTCe0xU6-9">
          <mxGeometry y="60" width="330" height="30" as="geometry" />
        </mxCell>
        <mxCell id="VnJcrbIUjHWHnTCe0xU6-29" value="&lt;font style=&quot;font-size: 12px&quot;&gt;+&amp;nbsp;&lt;span style=&quot;line-height: 107% ; font-family: &amp;#34;calibri&amp;#34; , sans-serif&quot;&gt;public String toString()&lt;/span&gt;&lt;/font&gt;" style="text;html=1;strokeColor=none;fillColor=none;align=center;verticalAlign=middle;whiteSpace=wrap;rounded=0;fontFamily=Tahoma;fontSize=12;" vertex="1" parent="VnJcrbIUjHWHnTCe0xU6-9">
          <mxGeometry y="90" width="330" height="30" as="geometry" />
        </mxCell>
        <mxCell id="VnJcrbIUjHWHnTCe0xU6-26" value="" style="endArrow=classic;html=1;rounded=0;fontFamily=Tahoma;fontSize=12;exitX=0.5;exitY=1;exitDx=0;exitDy=0;entryX=0.5;entryY=0;entryDx=0;entryDy=0;" edge="1" parent="1" source="VnJcrbIUjHWHnTCe0xU6-25" target="VnJcrbIUjHWHnTCe0xU6-9">
          <mxGeometry width="50" height="50" relative="1" as="geometry">
            <mxPoint x="400" y="520" as="sourcePoint" />
            <mxPoint x="450" y="470" as="targetPoint" />
          </mxGeometry>
        </mxCell>
        <mxCell id="VnJcrbIUjHWHnTCe0xU6-27" value="" style="endArrow=classic;html=1;rounded=0;fontFamily=Tahoma;fontSize=12;entryX=0.5;entryY=0;entryDx=0;entryDy=0;exitX=0.5;exitY=1;exitDx=0;exitDy=0;" edge="1" parent="1" source="VnJcrbIUjHWHnTCe0xU6-25" target="VnJcrbIUjHWHnTCe0xU6-5">
          <mxGeometry width="50" height="50" relative="1" as="geometry">
            <mxPoint x="400" y="520" as="sourcePoint" />
            <mxPoint x="450" y="470" as="targetPoint" />
          </mxGeometry>
        </mxCell>
      </root>
    </mxGraphModel>
  </diagram>
</mxfile>
